<?xml version="1.0" encoding="UTF-8"?>
<svg xmlns="http://www.w3.org/2000/svg" xmlns:xlink="http://www.w3.org/1999/xlink" viewBox="60 128 115 85">
  <defs>
    <linearGradient id="g1" x1="56.9" y1="247.7" x2="163.9" y2="131.3" gradientUnits="userSpaceOnUse">
      <stop offset="0" stop-color="#771bfa"/>
      <stop offset="1" stop-color="#faf3ee"/>
    </linearGradient>
    <linearGradient id="g2" x1="39.2" y1="231.5" x2="146.3" y2="115" xlink:href="#g1"/>
  </defs>
  <path fill="url(#g1)" d="M130.4,133.2c-.1,0-.2,0-.3,0h0s-13.4,0-13.4,0v23.2h13.4c.1,0,.2,0,.3,0,6.4,0,11.6,5.2,11.6,11.6s-5.2,11.6-11.6,11.6-.2,0-.3,0h0s-13.4,0-13.4,0v-23.2h-23.2v46.4h36.6c.1,0,.2,0,.3,0,19.2,0,34.8-15.6,34.8-34.8s-15.6-34.8-34.8-34.8Z"/>
  <rect fill="url(#g2)" x="64.7" y="179.6" width="23.2" height="23.2"/>
</svg>
