<?xml version="1.0" encoding="UTF-8"?>
<svg id="Layer_1" data-name="Layer 1" xmlns="http://www.w3.org/2000/svg" xmlns:xlink="http://www.w3.org/1999/xlink" version="1.1" viewBox="0 0 448 336">
  <defs>
    <style>
      .cls-1 {
        fill: url(#linear-gradient);
      }

      .cls-1, .cls-2, .cls-3 {
        stroke-width: 0px;
      }

      .cls-2 {
        fill: #04072a;
      }

      .cls-3 {
        fill: url(#linear-gradient-2);
      }
    </style>
    <linearGradient id="linear-gradient" x1="56.9" y1="247.7" x2="163.9" y2="131.3" gradientUnits="userSpaceOnUse">
      <stop offset="0" stop-color="#771bfa"/>
      <stop offset="1" stop-color="#faf3ee"/>
    </linearGradient>
    <linearGradient id="linear-gradient-2" x1="39.2" y1="231.5" x2="146.3" y2="115" xlink:href="#linear-gradient"/>
  </defs>
  <g>
    <path class="cls-2" d="M199.9,192.7v-50h21.8c13.3,0,23.9,11.4,23.9,25.1s-10.7,24.9-23.9,24.9h-21.8ZM208.7,183.8h12.3c8.9,0,15.8-7.3,15.8-16.1s-6.8-16.2-15.3-16.2h-12.8v32.3Z"/>
    <path class="cls-2" d="M248.6,148.2c0-3.2,2.3-5.5,5.5-5.5s5.5,2.3,5.5,5.5-2.3,5.5-5.5,5.5-5.5-2.3-5.5-5.5ZM249.9,192.7v-35h8.8v35h-8.8Z"/>
    <path class="cls-2" d="M304,175.1c0-9.9,7.6-18.2,17.7-18.2s7.6,1.3,9.9,3.9v-3.2h8.8v35h-8.8v-3.3c-1.9,2.2-5.5,4-9.9,4-10.1,0-17.7-7.7-17.7-18.3ZM331.3,175.3c0-4.9-4-9.6-9.6-9.6s-9,4.6-9,9.4,3.8,9.4,9,9.5c5.3.1,9.6-3.6,9.6-9.3Z"/>
    <path class="cls-2" d="M290.9,157.7v3.5c-2.2-2.4-5.7-4.2-9.8-4.2-10.1,0-17.8,8.5-17.8,18.1s7.7,18.3,17.8,18.3,7-1.3,9.6-3.8v1.7c0,4.9-4.6,7.6-9.8,7.6,0,0,0,0,0,0v8.9s0,0,.1,0c10.7,0,18.7-7.2,18.7-18.6v-31.5h-8.8ZM281.1,184.6c-5.2,0-9.1-4.1-9.1-9.5s3.9-9.4,9.1-9.4,9.8,4,9.8,9.1-4,9.8-9.8,9.8Z"/>
    <path class="cls-2" d="M362.1,142.7s-5.2-.3-8.6,3.1c-3.4,3.4-3.6,8.7-3.6,8.7h0c0,.5,0,1.1,0,1.7v1.5h-4.4v8.5h4.4l-.3,26.5h8.9l.3-26.5h7.9v-8.5h-7.9v-1.5c0-1.3.4-2.4,1.3-3.3.8-.8,2-1.2,3.2-1.3h3.4v-8.8h-4.6Z"/>
    <polygon class="cls-2" points="373.7 128.9 375.3 128.9 375.3 133.5 376 133.5 376 128.9 377.6 128.9 377.6 128.3 373.7 128.3 373.7 128.9"/>
    <path class="cls-2" d="M383,128.3h-.9l-.9,2.5c-.2.7-.4,1.2-.5,1.8h0c-.1-.5-.3-1.1-.5-1.8l-.9-2.5h-.9l-.4,5.2h.6v-2.2c.2-.8.2-1.7.2-2.3h0c.1.6.4,1.3.6,2l.8,2.5h.5l.9-2.5c.3-.7.5-1.4.7-2h0c0,.6,0,1.5,0,2.2v2.3h.8l-.3-5.2Z"/>
  </g>
  <g>
    <path class="cls-1" d="M130.4,133.2c-.1,0-.2,0-.3,0h0s-13.4,0-13.4,0v23.2h13.4c.1,0,.2,0,.3,0,6.4,0,11.6,5.2,11.6,11.6s-5.2,11.6-11.6,11.6-.2,0-.3,0h0s-13.4,0-13.4,0v-23.2h-23.2v46.4h36.6c.1,0,.2,0,.3,0,19.2,0,34.8-15.6,34.8-34.8s-15.6-34.8-34.8-34.8Z"/>
    <rect class="cls-3" x="64.7" y="179.6" width="23.2" height="23.2"/>
  </g>
</svg>